<?xml version="1.0" standalone="no"?>
<!DOCTYPE svg PUBLIC "-//W3C//DTD SVG 20010904//EN"
 "http://www.w3.org/TR/2001/REC-SVG-20010904/DTD/svg10.dtd">
<svg version="1.0" xmlns="http://www.w3.org/2000/svg"
 width="702.000000pt" height="676.000000pt" viewBox="0 0 702.000000 676.000000"
 preserveAspectRatio="xMidYMid meet">

<g transform="translate(0.000000,676.000000) scale(0.100000,-0.100000)"
fill="#000000" stroke="none">
<path d="M2895 6613 c3 -27 13 -77 20 -113 8 -36 18 -110 24 -166 6 -55 17
-136 25 -180 8 -43 19 -110 23 -149 8 -67 9 -70 36 -73 31 -4 31 -3 17 82 -5
33 -14 104 -20 156 -6 52 -17 122 -24 155 -8 33 -19 114 -26 180 -6 66 -16
128 -21 137 -6 10 -21 18 -35 18 -26 0 -26 -1 -19 -47z"/>
<path d="M3175 6423 c-22 -38 -42 -75 -44 -83 -2 -8 -14 -28 -27 -43 -13 -16
-24 -34 -24 -41 0 -7 -9 -21 -20 -31 -12 -10 -19 -24 -18 -30 2 -6 56 -59 121
-118 93 -85 123 -107 147 -107 16 0 31 4 34 9 3 5 -40 49 -97 97 -138 119
-139 121 -120 159 9 16 24 41 33 55 52 76 118 189 113 194 -4 3 -18 6 -33 6
-21 0 -32 -11 -65 -67z"/>
<path d="M3785 6481 c-7 -12 20 -234 35 -291 5 -19 12 -78 15 -131 4 -52 11
-102 16 -110 16 -25 42 3 94 102 97 185 108 204 126 227 17 23 17 23 24 -35 3
-32 11 -76 16 -98 6 -22 13 -76 16 -120 6 -114 12 -145 28 -145 12 0 31 30
125 195 167 291 169 295 126 295 -18 0 -30 -13 -57 -64 -19 -36 -43 -82 -55
-103 -11 -22 -30 -55 -42 -75 -12 -19 -22 -41 -22 -48 0 -7 -11 -25 -24 -41
-28 -34 -31 -29 -41 67 -4 38 -14 86 -21 108 -8 21 -14 73 -14 116 0 92 -17
119 -46 75 -19 -30 -63 -108 -100 -180 -55 -108 -80 -149 -91 -153 -7 -2 -13
5 -13 15 -1 26 -28 235 -43 323 -9 55 -16 76 -29 78 -9 2 -19 -2 -23 -7z"/>
<path d="M2504 6337 c-117 -35 -152 -127 -100 -260 14 -34 28 -75 32 -92 4
-16 20 -56 36 -88 23 -47 37 -62 71 -77 23 -11 54 -20 68 -20 35 0 103 24 139
50 37 26 65 98 56 145 -6 30 -11 35 -35 35 -28 0 -29 -1 -27 -56 1 -49 -2 -58
-27 -79 -76 -66 -167 -48 -201 41 -89 232 -96 262 -71 300 18 28 92 64 132 64
15 0 39 -14 60 -35 70 -70 114 -36 46 34 -32 33 -46 40 -88 45 -27 3 -68 0
-91 -7z"/>
<path d="M4665 6246 c-33 -14 -85 -69 -85 -89 0 -11 -20 -54 -77 -168 -17 -35
-23 -64 -23 -113 0 -63 2 -69 33 -97 43 -41 107 -69 155 -69 64 0 167 88 131
111 -24 15 -40 10 -66 -22 -25 -29 -30 -31 -79 -27 -37 3 -63 13 -88 32 -32
24 -36 32 -36 72 0 50 45 144 70 144 9 0 49 -16 90 -36 41 -20 96 -44 122 -54
l46 -19 12 32 c7 18 21 48 31 68 44 85 5 178 -94 225 -58 27 -97 30 -142 10z
m134 -66 c34 -17 71 -68 71 -98 0 -12 -50 -102 -57 -102 -2 0 -35 14 -73 30
-38 17 -72 30 -77 30 -4 0 -18 8 -31 18 -23 18 -23 19 -7 60 32 79 96 102 174
62z"/>
<path d="M5245 6119 c-28 -39 -65 -89 -82 -112 -18 -23 -33 -46 -33 -52 0 -5
-12 -21 -25 -34 -14 -13 -25 -29 -25 -36 0 -7 -7 -19 -16 -26 -9 -8 -27 -30
-40 -49 -13 -19 -40 -57 -59 -84 -30 -41 -35 -56 -35 -102 0 -69 11 -91 71
-137 86 -68 168 -61 239 20 22 25 40 51 40 58 0 6 11 22 25 35 14 13 25 29 25
35 0 7 9 20 21 31 32 29 59 89 59 132 0 75 -92 161 -173 162 -26 0 -27 2 -16
22 7 13 33 52 59 88 55 77 65 100 48 112 -24 15 -34 8 -83 -63z m32 -218 c79
-36 94 -109 38 -190 -19 -28 -35 -53 -35 -55 0 -3 -11 -17 -25 -32 -14 -15
-25 -32 -25 -38 -1 -19 -65 -76 -96 -85 -36 -10 -74 3 -121 43 -27 23 -33 35
-33 67 0 33 12 56 75 143 41 57 75 109 75 115 0 12 68 50 90 50 8 0 34 -8 57
-18z"/>
<path d="M1990 6105 c-94 -43 -141 -119 -119 -197 8 -32 14 -39 32 -36 20 3
22 8 19 56 -3 48 -1 55 31 87 39 39 72 50 122 41 28 -6 42 -17 65 -54 16 -26
30 -51 30 -57 0 -5 -23 -23 -51 -39 -29 -16 -70 -46 -92 -68 -35 -34 -41 -46
-44 -91 -8 -92 62 -167 154 -167 61 0 121 37 146 90 20 41 25 45 55 42 17 -2
32 1 32 6 0 10 -88 163 -117 202 -10 14 -26 41 -35 60 -29 57 -51 88 -80 110
-36 27 -104 34 -148 15z m240 -250 c0 -6 11 -26 25 -45 14 -19 25 -40 25 -48
0 -34 -35 -83 -75 -107 -64 -37 -95 -33 -140 16 -34 38 -37 46 -32 85 5 50 26
71 111 116 47 24 53 25 69 11 9 -9 17 -21 17 -28z"/>
<path d="M1396 5835 c-3 -8 -2 -15 2 -15 5 0 23 -21 41 -46 32 -46 32 -47 13
-68 -47 -52 -25 -87 29 -47 16 12 34 19 40 15 6 -3 29 -30 52 -58 80 -101 170
-201 196 -218 47 -32 112 -22 169 26 45 39 9 72 -40 36 -42 -31 -92 -27 -126
13 -240 269 -225 244 -171 291 32 27 39 39 34 55 -8 25 -27 27 -45 6 -7 -9
-26 -25 -41 -36 -24 -17 -31 -18 -49 -7 -11 7 -20 18 -20 24 0 34 -72 59 -84
29z"/>
<path d="M5573 5568 c-18 -13 -39 -41 -48 -65 -15 -38 -15 -46 0 -96 9 -31 25
-67 36 -81 12 -16 23 -48 26 -80 5 -49 3 -57 -20 -80 -39 -39 -86 -35 -136 10
-52 46 -67 90 -48 137 8 19 20 38 26 42 16 10 -5 35 -30 35 -32 0 -51 -44 -51
-114 0 -61 2 -67 42 -115 43 -50 98 -81 146 -81 43 0 99 38 118 79 18 42 21
97 6 106 -5 3 -10 17 -10 29 0 13 -11 39 -24 58 -29 44 -42 109 -26 138 6 11
25 30 42 40 29 17 34 18 62 3 17 -8 46 -29 64 -46 37 -36 43 -81 15 -128 -16
-28 -16 -29 2 -44 11 -8 23 -15 27 -15 17 0 38 63 38 112 0 64 -23 105 -81
148 -54 39 -127 42 -176 8z"/>
<path d="M1226 5454 c-49 -18 -71 -37 -108 -93 -37 -58 -38 -114 -3 -161 53
-72 127 -81 215 -25 76 48 120 68 153 68 38 0 80 -43 80 -81 0 -61 -75 -142
-131 -142 -13 0 -36 7 -53 15 -34 18 -49 13 -49 -18 0 -48 93 -71 157 -39 44
23 109 90 123 128 16 41 11 94 -11 131 -44 71 -128 83 -216 31 -97 -58 -117
-67 -155 -68 -29 0 -42 6 -62 31 -14 17 -26 37 -26 45 0 26 28 70 66 103 35
31 39 32 94 26 46 -5 58 -4 63 8 9 23 -13 36 -83 52 -8 2 -33 -3 -54 -11z"/>
<path d="M6187 5310 c-32 -25 -34 -41 -9 -64 18 -15 21 -15 45 5 32 24 32 27
9 57 l-18 23 -27 -21z"/>
<path d="M5941 5132 c-35 -26 -120 -85 -189 -132 -69 -47 -127 -90 -129 -96
-2 -5 3 -18 10 -29 15 -20 5 -26 337 207 90 63 103 75 96 87 -14 23 -62 8
-125 -37z"/>
<path d="M697 5133 c-16 -16 -3 -32 51 -65 31 -19 171 -103 309 -187 153 -93
259 -151 268 -147 8 3 15 14 15 25 0 14 -35 40 -132 99 -73 43 -208 125 -300
181 -155 94 -194 111 -211 94z"/>
<path d="M6141 4981 c-14 -9 -4 -38 26 -73 8 -9 11 -18 6 -21 -8 -5 -135 -72
-258 -137 -38 -20 -75 -47 -81 -59 -7 -13 -17 -28 -23 -34 -22 -22 -13 -93 15
-127 22 -26 29 -29 40 -18 10 10 10 22 1 55 -17 64 -3 92 63 127 204 107 264
135 275 126 7 -6 20 -28 30 -50 15 -33 23 -40 47 -40 29 0 37 17 17 37 -6 6
-20 30 -30 52 l-18 40 57 32 c71 39 67 36 52 54 -17 21 -42 19 -73 -5 -36 -29
-61 -25 -91 15 -29 37 -33 40 -55 26z"/>
<path d="M544 4855 c-4 -14 -5 -28 -3 -30 4 -3 259 -127 517 -251 73 -35 137
-64 142 -64 10 0 34 39 28 45 -5 5 -668 325 -673 325 -3 0 -7 -11 -11 -25z"/>
<path d="M641 4497 c-23 -23 -12 -44 32 -56 158 -46 331 -106 351 -122 34 -27
41 -69 21 -130 -14 -40 -24 -54 -51 -67 -40 -19 -51 -17 -284 58 -85 28 -157
47 -161 42 -4 -4 -9 -15 -11 -25 -3 -21 17 -30 227 -95 171 -53 179 -54 223
-42 45 12 81 49 107 108 19 43 17 73 -10 134 -5 13 -1 19 19 24 56 14 29 33
-104 74 -58 17 -123 38 -145 45 -22 8 -56 19 -75 24 -19 5 -56 16 -81 25 -34
10 -50 11 -58 3z"/>
<path d="M6140 4447 c-104 -35 -131 -48 -167 -82 -41 -40 -43 -44 -43 -100 0
-100 48 -173 130 -195 51 -14 102 4 98 34 -3 18 -10 21 -56 22 -77 2 -122 51
-122 131 0 53 21 78 85 102 102 38 102 39 115 -11 5 -23 19 -65 29 -93 10 -27
24 -68 30 -91 l11 -41 49 8 c98 15 164 67 177 137 14 73 -33 175 -96 207 -45
23 -105 16 -240 -28z m231 -29 c26 -21 59 -87 59 -118 0 -39 -43 -87 -88 -100
-51 -14 -62 -13 -69 8 -3 9 -13 35 -23 57 -17 40 -43 136 -38 140 35 27 133
34 159 13z"/>
<path d="M267 3888 c-29 -182 -38 -291 -25 -299 5 -4 51 -10 102 -13 50 -4
145 -14 211 -21 66 -8 170 -19 230 -25 61 -5 126 -13 147 -16 31 -5 37 -2 43
16 4 12 3 26 -2 31 -4 4 -71 16 -148 24 -206 24 -189 17 -181 78 20 154 27
230 22 234 -3 3 -16 3 -30 -1 -27 -7 -30 -17 -46 -175 -5 -52 -13 -97 -17
-101 -4 -4 -68 0 -140 8 -123 14 -133 17 -133 36 0 12 7 84 15 161 19 181 19
175 -8 175 -22 0 -24 -7 -40 -112z"/>
<path d="M6150 3607 c-108 -55 -134 -221 -50 -322 10 -12 7 -21 -13 -45 -35
-41 -54 -100 -36 -111 25 -16 40 -9 54 25 27 65 53 76 181 76 l113 0 3 -52 c3
-49 5 -53 30 -56 26 -3 27 -1 30 50 3 50 5 53 33 58 24 4 30 10 30 30 0 20 -6
26 -30 30 l-30 5 3 75 c5 135 9 148 53 170 46 24 128 26 170 5 16 -9 39 -30
49 -48 51 -82 -5 -207 -91 -207 -16 0 -20 -6 -17 -27 7 -66 124 -19 168 66 43
86 15 208 -61 258 -45 29 -134 41 -194 24 -23 -6 -55 -26 -73 -44 l-33 -34
-37 34 c-73 68 -168 82 -252 40z m187 -57 c60 -36 69 -65 65 -197 l-2 -63 -82
0 c-153 0 -208 36 -208 133 0 64 15 94 59 124 44 30 122 31 168 3z"/>
<path d="M897 3332 c-3 -4 -3 -19 0 -35 5 -23 10 -27 39 -27 32 0 34 2 34 35
0 33 -2 35 -34 35 -19 0 -37 -3 -39 -8z"/>
<path d="M502 2772 c-21 -14 -4 -58 42 -106 36 -37 41 -47 35 -70 -9 -33 -34
-37 236 33 235 61 258 69 251 88 -4 8 -6 17 -6 19 0 11 -66 1 -165 -27 -162
-44 -227 -54 -271 -43 -33 8 -39 14 -54 59 -17 51 -39 66 -68 47z"/>
<path d="M5965 2684 c-9 -9 -14 -21 -12 -27 3 -11 140 -71 287 -127 41 -16 93
-38 115 -49 l40 -19 -45 -4 c-25 -2 -76 0 -115 4 -38 4 -134 7 -212 7 -131 1
-143 0 -143 -17 0 -16 94 -109 240 -237 112 -97 123 -109 113 -112 -7 -3 -35
5 -65 17 -129 52 -155 63 -194 81 -23 11 -48 19 -57 19 -9 0 -18 4 -21 9 -4 5
-26 16 -50 24 -40 14 -46 14 -57 0 -21 -25 1 -44 92 -80 46 -18 93 -38 104
-43 11 -5 52 -21 90 -35 39 -14 88 -34 110 -44 123 -56 255 -103 272 -97 16 6
12 13 -27 48 -25 22 -92 84 -150 138 -58 54 -123 113 -145 132 -22 18 -63 57
-90 87 l-50 53 317 -3 c218 -3 320 -1 328 7 8 8 -38 30 -162 79 -95 38 -178
72 -184 77 -6 4 -28 14 -50 22 -21 8 -88 35 -149 60 -60 25 -110 46 -112 46
-1 0 -9 -7 -18 -16z"/>
<path d="M986 2507 c-15 -11 -17 -18 -8 -33 8 -14 20 -18 52 -15 51 3 85 -17
105 -65 34 -81 13 -132 -69 -170 -64 -30 -84 -30 -95 0 -29 75 -103 218 -117
223 -8 3 -45 -10 -82 -29 -106 -56 -132 -119 -93 -223 34 -89 124 -142 196
-115 95 36 263 115 283 134 33 30 52 69 52 109 0 51 -43 141 -81 167 -39 28
-116 38 -143 17z m-123 -141 c9 -7 17 -22 17 -33 0 -11 11 -40 23 -64 13 -24
27 -56 30 -71 7 -25 3 -29 -30 -44 -74 -31 -97 -30 -138 8 -32 29 -38 42 -42
85 -7 64 7 90 60 114 50 22 57 23 80 5z"/>
<path d="M1125 1982 c-66 -44 -136 -97 -155 -117 -32 -33 -35 -41 -35 -94 0
-45 6 -66 25 -95 25 -37 84 -76 116 -76 12 0 15 -6 10 -24 -9 -35 11 -42 46
-16 17 12 89 62 162 110 72 48 174 118 226 155 52 36 110 76 127 88 32 22 44
59 23 72 -5 3 -52 -24 -105 -60 -53 -36 -99 -65 -104 -65 -5 0 -11 17 -14 39
-12 95 -67 152 -152 159 -50 4 -54 2 -170 -76z m215 8 c26 -14 70 -91 70 -122
0 -38 -28 -67 -144 -146 -130 -90 -153 -99 -198 -78 -36 18 -88 91 -88 125 0
31 52 81 169 160 107 73 146 85 191 61z"/>
<path d="M5665 2005 c-65 -31 -116 -100 -123 -166 -7 -71 21 -106 160 -210 92
-68 129 -89 163 -95 78 -11 131 20 183 107 27 44 29 110 5 151 -19 31 -241
200 -287 218 -36 13 -65 12 -101 -5z m201 -130 c119 -84 154 -121 154 -161 0
-31 -56 -102 -94 -121 -32 -15 -36 -15 -74 5 -22 11 -77 48 -123 81 -45 34
-86 61 -89 61 -4 0 -18 20 -31 45 l-24 45 24 46 c14 25 36 54 49 65 47 37 80
26 208 -66z"/>
<path d="M1545 1642 c-43 -29 -197 -190 -223 -235 -12 -21 -22 -51 -22 -67 0
-69 87 -173 155 -186 68 -12 105 8 215 120 127 129 140 148 140 207 0 48 -27
96 -84 149 -37 34 -137 40 -181 12z m143 -54 c45 -28 73 -89 61 -132 -6 -20
-49 -70 -117 -138 -99 -98 -112 -108 -146 -108 -85 0 -153 101 -115 172 14 26
188 202 214 216 31 17 64 14 103 -10z"/>
<path d="M5305 1605 c-85 -46 -134 -147 -107 -217 18 -45 216 -253 255 -267
90 -34 205 27 223 118 4 17 10 31 14 31 5 0 44 -39 88 -86 44 -48 85 -84 90
-80 5 3 12 16 15 28 5 17 -11 39 -76 107 -45 47 -102 109 -128 136 -26 28 -87
92 -137 144 l-91 95 -58 3 c-40 3 -67 -1 -88 -12z m113 -49 c26 -14 198 -192
216 -223 4 -9 6 -35 3 -60 -4 -35 -12 -51 -38 -73 -41 -35 -88 -46 -120 -30
-13 7 -50 40 -82 74 -32 33 -74 77 -92 96 -19 19 -41 51 -49 71 -14 33 -13 39
6 78 13 26 34 49 57 61 44 23 64 24 99 6z"/>
<path d="M1978 1332 c-32 -35 -93 -122 -101 -144 -4 -10 -11 -18 -16 -18 -5 0
-18 -15 -29 -32 -29 -45 -196 -279 -215 -300 -39 -42 -49 -66 -37 -88 13 -24
31 -22 45 6 6 11 20 31 33 44 12 13 22 27 22 31 0 4 6 14 13 21 17 18 144 192
209 286 21 31 49 68 106 141 25 33 28 54 9 70 -10 8 -19 4 -39 -17z"/>
<path d="M4987 1312 c-16 -18 -16 -20 8 -53 13 -19 29 -43 34 -54 5 -12 16
-27 25 -34 9 -8 24 -29 32 -47 9 -19 20 -34 25 -34 5 0 16 -15 24 -32 8 -18
29 -51 45 -73 17 -22 42 -57 55 -77 28 -42 33 -44 58 -25 16 11 15 16 -15 61
-18 27 -38 58 -44 68 -6 10 -21 29 -33 42 -11 12 -21 25 -21 29 0 4 -18 33
-40 65 -23 31 -52 73 -65 92 -13 19 -34 48 -47 63 -23 28 -24 28 -41 9z"/>
<path d="M2185 1185 c-16 -9 -42 -30 -58 -47 l-27 -32 24 -13 c22 -12 27 -10
55 17 45 45 115 38 174 -18 37 -35 36 -79 -5 -153 -18 -33 -37 -59 -41 -59 -5
0 -65 29 -132 65 l-123 64 -36 -70 c-27 -53 -36 -83 -36 -121 0 -46 4 -54 43
-93 23 -23 63 -50 89 -60 103 -38 163 5 257 188 55 105 61 123 61 176 0 50 -4
65 -27 92 -32 37 -115 79 -158 79 -16 0 -43 -7 -60 -15z m-6 -291 c118 -64
114 -59 91 -104 -38 -75 -96 -97 -166 -64 -45 21 -74 59 -74 96 0 27 44 118
57 118 3 0 45 -21 92 -46z"/>
<path d="M4782 1188 c-19 -19 -15 -35 36 -125 26 -46 55 -101 66 -121 10 -20
25 -41 32 -45 8 -4 14 -15 14 -23 0 -14 27 -66 102 -193 15 -25 36 -64 46 -86
24 -51 45 -68 72 -60 11 3 20 9 19 13 0 4 -18 36 -39 72 -22 36 -47 82 -56
103 -9 20 -20 37 -24 37 -5 0 -12 10 -16 23 -6 20 -59 118 -111 205 -24 42
-60 107 -92 170 -23 45 -30 49 -49 30z"/>
<path d="M4432 1048 c-18 -6 -48 -29 -68 -50 -33 -37 -35 -42 -32 -101 3 -54
5 -62 23 -62 17 0 21 8 25 55 6 68 12 77 64 101 46 21 88 24 116 9 25 -14 67
-86 75 -130 6 -34 5 -36 -40 -58 -25 -12 -51 -22 -58 -22 -6 -1 -30 -9 -52
-20 -22 -11 -47 -19 -56 -20 -8 0 -23 -6 -33 -13 -16 -12 -17 -18 -5 -55 7
-23 18 -47 26 -53 7 -6 13 -19 13 -29 0 -23 50 -65 95 -80 28 -9 45 -8 88 4
67 19 102 46 128 98 25 48 22 75 -15 173 -15 39 -36 95 -47 125 -11 30 -34 73
-53 94 -31 38 -36 40 -97 42 -35 2 -79 -2 -97 -8z m252 -305 c27 -80 16 -118
-44 -152 -48 -27 -100 -27 -133 -1 -29 23 -65 107 -51 119 5 5 41 21 79 35 39
15 79 31 90 36 35 15 43 11 59 -37z"/>
<path d="M2733 953 c-9 -15 -36 -51 -58 -80 -22 -28 -51 -68 -65 -88 -25 -36
-79 -107 -103 -135 -48 -57 -75 -105 -66 -117 22 -26 57 9 179 182 78 109 101
136 111 129 5 -3 9 -53 9 -112 0 -59 3 -151 7 -205 6 -92 7 -98 30 -103 13 -4
26 -5 28 -3 2 2 -1 60 -6 129 -5 69 -13 192 -17 274 -7 159 -16 181 -49 129z"/>
<path d="M3126 885 c-42 -22 -77 -64 -88 -103 -11 -38 -10 -39 17 -44 14 -2
21 3 23 19 2 12 19 36 38 53 30 25 43 30 89 30 46 0 59 -4 90 -31 32 -28 35
-36 35 -84 0 -28 -5 -67 -11 -85 -11 -31 -14 -32 -53 -27 -22 3 -81 11 -129
17 -65 9 -92 9 -101 0 -8 -6 -19 -40 -26 -76 -12 -62 -11 -69 9 -110 13 -24
38 -56 56 -70 29 -22 46 -26 107 -27 66 -2 77 1 110 26 22 17 43 45 52 70 18
49 36 194 36 289 0 58 -4 71 -27 99 -52 62 -162 88 -227 54z m79 -308 c100
-13 105 -18 90 -94 -10 -53 -45 -83 -98 -83 -103 0 -142 41 -130 139 7 59 -3
56 138 38z"/>
<path d="M3675 878 c-11 -6 -32 -22 -47 -36 l-28 -26 -25 24 c-14 13 -28 21
-31 17 -4 -3 -1 -57 5 -119 25 -259 32 -340 39 -473 l7 -140 28 -3 28 -3 -7
73 c-9 87 -10 165 -2 173 3 3 18 -1 34 -10 34 -17 108 -20 152 -4 18 6 45 29
62 52 34 46 37 86 21 268 -11 118 -34 170 -91 199 -43 22 -113 26 -145 8z
m147 -78 c10 -12 19 -48 23 -88 4 -37 10 -83 15 -102 22 -96 22 -128 -2 -161
-13 -17 -35 -37 -50 -45 -39 -20 -105 -17 -143 6 -36 22 -34 13 -51 256 -7
102 8 150 49 159 75 16 132 7 159 -25z"/>
<path d="M5362 763 l-23 -16 27 -28 c21 -22 31 -26 45 -18 22 11 24 37 5 62
-16 21 -24 21 -54 0z"/>
</g>
</svg>
